<svg width="512" height="512" viewBox="0 0 512 512" fill="none" xmlns="http://www.w3.org/2000/svg">
<path d="M256 448L85.3335 352V160L256 64.0001L426.667 160V256M426.667 90.3385C429.867 90.3385 464 69.5539 480.667 59.1616M85.3335 90.3385C82.1335 90.3385 48.0002 69.5539 31.3335 59.1616M426.667 436.323C429.867 436.323 464 457.108 480.667 467.5M85.3335 436.323C82.1335 436.323 48.0002 457.108 31.3335 467.5" stroke="#0EF4A3" stroke-width="24" stroke-linecap="round" stroke-linejoin="round"/>
<path d="M256 256L426.667 160" stroke="#00CFC1" stroke-width="24" stroke-linecap="round" stroke-linejoin="round"/>
<path d="M256 448L426.667 352" stroke="#00CFC1" stroke-width="24" stroke-linecap="round" stroke-linejoin="round"/>
<path d="M256 319L426.667 223" stroke="#00CFC1" stroke-width="24" stroke-linecap="round" stroke-linejoin="round"/>
<path d="M256 256V448" stroke="#00CFC1" stroke-width="24" stroke-linecap="round" stroke-linejoin="round"/>
<path d="M427 160V352" stroke="#00CFC1" stroke-width="24" stroke-linecap="round" stroke-linejoin="round"/>
<path d="M256 256L85.3335 160" stroke="#00CFC1" stroke-width="24" stroke-linecap="round" stroke-linejoin="round"/>
<path d="M256 319L163.5 267V296L120.437 272.5V243L85.3335 223" stroke="#00CFC1" stroke-width="24" stroke-linecap="round" stroke-linejoin="round"/>
<path d="M268 150L268 141" stroke="#00CFC1" stroke-width="16" stroke-linecap="round" stroke-linejoin="round"/>
<path d="M292 161L300.286 157.486" stroke="#00CFC1" stroke-width="16" stroke-linecap="round" stroke-linejoin="round"/>
<path d="M220.286 161L212 157.486" stroke="#00CFC1" stroke-width="16" stroke-linecap="round" stroke-linejoin="round"/>
<path d="M244 150L244 141" stroke="#00CFC1" stroke-width="16" stroke-linecap="round" stroke-linejoin="round"/>
<path d="M244 175C253.141 181.77 258.351 183.054 268 175" stroke="#00CFC1" stroke-width="16" stroke-linecap="round" stroke-linejoin="round"/>
<line x1="44" y1="268" x2="18" y2="268" stroke="#00CFC1" stroke-width="24" stroke-linecap="round"/>
<line x1="489" y1="266" x2="463" y2="266" stroke="#00CFC1" stroke-width="24" stroke-linecap="round"/>
</svg>
