<svg width="512" height="512" viewBox="0 0 512 512" fill="none" xmlns="http://www.w3.org/2000/svg">
<g clip-path="url(#clip0_5_85)">
<rect width="512" height="512" rx="110" fill="#2A173B"/>
<path d="M256 448L85.3333 352V160L256 64L426.667 160V256" stroke="#95C5AC" stroke-width="16" stroke-linecap="round" stroke-linejoin="round"/>
<path d="M256 256L426.667 160" stroke="#95C5AC" stroke-width="16" stroke-linecap="round" stroke-linejoin="round"/>
<path d="M256 319L426.667 223" stroke="#95C5AC" stroke-width="16" stroke-linecap="round" stroke-linejoin="round"/>
<path d="M256 256V448" stroke="#95C5AC" stroke-width="16" stroke-linecap="round" stroke-linejoin="round"/>
<path d="M256 256L85.3333 160" stroke="#95C5AC" stroke-width="16" stroke-linecap="round" stroke-linejoin="round"/>
<path d="M256 319L148.5 259V279.959L120.437 265V243L85.3333 223" stroke="#95C5AC" stroke-width="16" stroke-linecap="round" stroke-linejoin="round"/>
<path d="M320 384H469.333" stroke="#95C5AC" stroke-width="16" stroke-linecap="round" stroke-linejoin="round"/>
<path d="M405.333 320L469.333 384L405.333 448" stroke="#95C5AC" stroke-width="16" stroke-linecap="round" stroke-linejoin="round"/>
<path d="M268 141L268 132" stroke="#95C5AC" stroke-width="16" stroke-linecap="round" stroke-linejoin="round"/>
<path d="M292 152L300.286 148.486" stroke="#95C5AC" stroke-width="16" stroke-linecap="round" stroke-linejoin="round"/>
<path d="M220.286 152L212 148.486" stroke="#95C5AC" stroke-width="16" stroke-linecap="round" stroke-linejoin="round"/>
<path d="M244 141L244 132" stroke="#95C5AC" stroke-width="16" stroke-linecap="round" stroke-linejoin="round"/>
<path d="M244 166C253.141 172.77 258.351 174.054 268 166" stroke="#95C5AC" stroke-width="16" stroke-linecap="round" stroke-linejoin="round"/>
</g>
<defs>
<clipPath id="clip0_5_85">
<rect width="512" height="512" fill="white"/>
</clipPath>
</defs>
</svg>
